<svg xmlns="http://www.w3.org/2000/svg" xmlns:xlink="http://www.w3.org/1999/xlink" width="94.371" height="94.053" viewBox="0 0 94.371 94.053">
  <defs>
    <clipPath id="clip-path">
      <rect id="Rectángulo_456352" data-name="Rectángulo 456352" width="71" height="60" transform="translate(-0.273 0.006)" fill="none"/>
    </clipPath>
    <clipPath id="clip-path-3">
      <rect id="Rectángulo_456326" data-name="Rectángulo 456326" width="4" height="1" transform="translate(0.359 -0.357)" fill="none"/>
    </clipPath>
    <clipPath id="clip-path-4">
      <rect id="Rectángulo_456328" data-name="Rectángulo 456328" width="29" height="1" transform="translate(0.363 -0.357)" fill="none"/>
    </clipPath>
    <clipPath id="clip-path-5">
      <rect id="Rectángulo_456330" data-name="Rectángulo 456330" width="10" height="1" transform="translate(0.363 0.005)" fill="none"/>
    </clipPath>
    <clipPath id="clip-path-6">
      <rect id="Rectángulo_456331" data-name="Rectángulo 456331" width="19" height="2" transform="translate(0.18 0.369)" fill="none"/>
    </clipPath>
    <clipPath id="clip-path-7">
      <rect id="Rectángulo_456333" data-name="Rectángulo 456333" width="4" height="1" transform="translate(0.359 0.369)" fill="none"/>
    </clipPath>
    <clipPath id="clip-path-8">
      <rect id="Rectángulo_456335" data-name="Rectángulo 456335" width="5" height="1" transform="translate(-0.186 0.006)" fill="none"/>
    </clipPath>
    <clipPath id="clip-path-9">
      <rect id="Rectángulo_456336" data-name="Rectángulo 456336" width="6" height="2" transform="translate(0.268 -0.176)" fill="none"/>
    </clipPath>
    <clipPath id="clip-path-10">
      <rect id="Rectángulo_456338" data-name="Rectángulo 456338" width="6" height="1" transform="translate(0.268 -0.268)" fill="none"/>
    </clipPath>
    <clipPath id="clip-path-11">
      <rect id="Rectángulo_456339" data-name="Rectángulo 456339" width="4.255" height="3.037" fill="none"/>
    </clipPath>
    <clipPath id="clip-path-12">
      <rect id="Rectángulo_456340" data-name="Rectángulo 456340" width="67" height="2" transform="translate(-0.455 -0.087)" fill="none"/>
    </clipPath>
    <clipPath id="clip-path-13">
      <rect id="Rectángulo_456341" data-name="Rectángulo 456341" width="20.278" height="3.858" fill="none"/>
    </clipPath>
    <clipPath id="clip-path-14">
      <rect id="Rectángulo_456343" data-name="Rectángulo 456343" width="30" height="1" transform="translate(-0.273 -0.451)" fill="none"/>
    </clipPath>
    <clipPath id="clip-path-15">
      <rect id="Rectángulo_456344" data-name="Rectángulo 456344" width="29.758" height="4.128" fill="none"/>
    </clipPath>
    <clipPath id="clip-path-16">
      <rect id="Rectángulo_456345" data-name="Rectángulo 456345" width="18.74" height="3.781" fill="none"/>
    </clipPath>
    <clipPath id="clip-path-18">
      <rect id="Rectángulo_456348" data-name="Rectángulo 456348" width="18" height="1" transform="translate(-0.006 0.274)" fill="none"/>
    </clipPath>
    <clipPath id="clip-path-19">
      <rect id="Rectángulo_456350" data-name="Rectángulo 456350" width="18" height="1" transform="translate(0.09 0.274)" fill="none"/>
    </clipPath>
  </defs>
  <g id="Grupo_1207435" data-name="Grupo 1207435" transform="translate(-705 -326)">
    <rect id="Rectángulo_456663" data-name="Rectángulo 456663" width="94" height="81.3" transform="translate(705.371 338.754)" fill="none"/>
    <g id="Grupo_1206452" data-name="Grupo 1206452" transform="translate(385.941 -6361.371)">
      <circle id="Elipse_11507" data-name="Elipse 11507" cx="42" cy="42" r="42" transform="translate(319.059 6687.371)" fill="#fde1be"/>
      <g id="Grupo_1206267" data-name="Grupo 1206267" transform="translate(326.332 6699.365)">
        <g id="Grupo_1206266" data-name="Grupo 1206266" transform="translate(0 0)" clip-path="url(#clip-path)">
          <g id="Grupo_1206265" data-name="Grupo 1206265">
            <g id="Grupo_1206264" data-name="Grupo 1206264" clip-path="url(#clip-path)">
              <path id="Trazado_1264731" data-name="Trazado 1264731" d="M95.512,5.1V18.331H90V5.1A1.106,1.106,0,0,1,91.1,4h3.307a1.106,1.106,0,0,1,1.1,1.1" transform="translate(-40.393 -2.057)" fill="#dfc5b4"/>
              <path id="Trazado_1264732" data-name="Trazado 1264732" d="M37.764,8v8.819H19.024a1.106,1.106,0,0,0-1.1,1.1v3.307H8V8Z" transform="translate(-3.591 -3.852)" fill="#dfc5b4"/>
              <path id="Trazado_1264733" data-name="Trazado 1264733" d="M14,61v9.651l3.291,3.026H43.758L43.764,61Zm5.512,9.921a3.307,3.307,0,1,1,3.307-3.307,3.307,3.307,0,0,1-3.307,3.307" transform="translate(-6.283 -27.639)" fill="#dfc5b4"/>
              <path id="Trazado_1264734" data-name="Trazado 1264734" d="M21.307,67a3.307,3.307,0,1,0,3.307,3.307A3.307,3.307,0,0,0,21.307,67m0,4.409a1.1,1.1,0,1,1,1.1-1.1,1.1,1.1,0,0,1-1.1,1.1" transform="translate(-8.079 -30.332)" fill="#1d1d1b"/>
              <path id="Trazado_1264735" data-name="Trazado 1264735" d="M35.1,71A1.1,1.1,0,1,1,34,72.1,1.1,1.1,0,0,1,35.1,71" transform="translate(-15.26 -32.127)" fill="#1d1d1b"/>
              <path id="Trazado_1264736" data-name="Trazado 1264736" d="M43.1,71A1.1,1.1,0,1,1,42,72.1,1.1,1.1,0,0,1,43.1,71" transform="translate(-18.85 -32.127)" fill="#1d1d1b"/>
              <path id="Trazado_1264737" data-name="Trazado 1264737" d="M59.1,78.2h1.1a1.1,1.1,0,0,0,0-2.2H59.1a1.1,1.1,0,0,0,0,2.2" transform="translate(-26.031 -34.371)" fill="#1d1d1b"/>
              <path id="Trazado_1264738" data-name="Trazado 1264738" d="M59.1,100.2h4.409a1.1,1.1,0,1,0,0-2.2H59.1a1.1,1.1,0,1,0,0,2.2" transform="translate(-26.031 -44.245)" fill="#1d1d1b"/>
              <path id="Trazado_1264739" data-name="Trazado 1264739" d="M94.1,12.99a1.1,1.1,0,1,1-1.1,1.1,1.1,1.1,0,0,1,1.1-1.1" transform="translate(-41.74 -6.091)" fill="#1d1d1b"/>
              <path id="Trazado_1264740" data-name="Trazado 1264740" d="M16.2,20H15.1a1.1,1.1,0,1,0,0,2.2h1.1a1.1,1.1,0,1,0,0-2.2" transform="translate(-6.283 -9.238)" fill="#1d1d1b"/>
              <path id="Trazado_1264741" data-name="Trazado 1264741" d="M16.2,13H15.1a1.1,1.1,0,1,0,0,2.2h1.1a1.1,1.1,0,0,0,0-2.2" transform="translate(-6.283 -6.096)" fill="#1d1d1b"/>
              <path id="Trazado_1264742" data-name="Trazado 1264742" d="M69.449,27.008H13.228V19.843h1.1a2.2,2.2,0,0,0,2.2-2.2h0v-2.2H40.788a2.2,2.2,0,0,0,2.2-2.2h0V11.569H47.4v6.272a2.2,2.2,0,0,0,.4,1.262s3.654,5.22,3.66,5.231a1.12,1.12,0,0,0,1.808,0l3.66-5.231a2.2,2.2,0,0,0,.4-1.262V3.307A3.31,3.31,0,0,0,54.016,0H50.709A3.31,3.31,0,0,0,47.4,3.307V4.955H42.992V4.409a2.2,2.2,0,0,0-2.2-2.2H4.409a2.2,2.2,0,0,0-2.2,2.2h0V17.638a2.2,2.2,0,0,0,2.2,2.2h1.1v7.165H1.1A1.106,1.106,0,0,0,0,28.11v2.2a3.31,3.31,0,0,0,3.307,3.307h2.2v9.651a2.219,2.219,0,0,0,.706,1.615l3.153,2.9v4.024H5.914a1.642,1.642,0,0,0-1.135.452L1.62,55.256a1.659,1.659,0,0,0-.518,1.2v2.519A1.658,1.658,0,0,0,2.756,60.63H67.8a1.658,1.658,0,0,0,1.654-1.654V56.458a1.659,1.659,0,0,0-.518-1.2l-3.158-2.993a1.642,1.642,0,0,0-1.135-.452H57.874V39.41a3.333,3.333,0,0,0,1.367-1.075s3.423-4.68,3.439-4.713h4.564a3.31,3.31,0,0,0,3.307-3.307v-2.2a1.106,1.106,0,0,0-1.1-1.1M52.363,21.777,50.235,18.74H54.49ZM49.607,3.307a1.106,1.106,0,0,1,1.1-1.1h3.307a1.106,1.106,0,0,1,1.1,1.1V16.536H49.607ZM42.992,7.16H47.4v2.2H42.992Zm-6.614-2.75h4.409v8.819H36.378ZM4.409,17.638V4.409H34.173v8.819H15.433a1.106,1.106,0,0,0-1.1,1.1v3.307Zm6.614,9.37H7.717V19.843h3.307ZM7.717,43.274V33.622H37.481L37.475,46.3H11.007ZM22.047,58.426H3.307V56.695l2.828-2.679H22.047ZM46.3,52.914v5.512H24.252V52.914a1.106,1.106,0,0,0-1.1-1.1H11.575V48.5h25.9a2.207,2.207,0,0,0,2.21-2.2v-6.62H51.26V51.811H47.4a1.106,1.106,0,0,0-1.1,1.1m18.117,1.1,2.828,2.679v1.731H48.5V54.016ZM53.465,39.685h2.2V51.811h-2.2Zm4-2.657a1.107,1.107,0,0,1-.887.452H39.685V33.622H59.963Zm10.886-6.713a1.106,1.106,0,0,1-1.1,1.1H3.307a1.106,1.106,0,0,1-1.1-1.1v-1.1H68.347Z" transform="translate(0 -0.261)" fill="#1d1d1b"/>
              <rect id="Rectángulo_456321" data-name="Rectángulo 456321" width="4" height="9" transform="translate(36.727 4.006)" fill="#e1ebf4"/>
              <rect id="Rectángulo_456322" data-name="Rectángulo 456322" width="5" height="2" transform="translate(42.727 7.006)" fill="#ffdb80"/>
              <path id="Trazado_1264743" data-name="Trazado 1264743" d="M95.4,34l-2.128,3.037L91.14,34Z" transform="translate(-40.905 -15.521)" fill="#e1ebf4"/>
              <rect id="Rectángulo_456323" data-name="Rectángulo 456323" width="3" height="7" transform="translate(7.727 20.006)" fill="#ffdb80"/>
              <path id="Trazado_1264744" data-name="Trazado 1264744" d="M23.1,71A1.1,1.1,0,1,1,22,72.1,1.1,1.1,0,0,1,23.1,71" transform="translate(-9.874 -32.127)" fill="#e1ebf4"/>
              <path id="Trazado_1264745" data-name="Trazado 1264745" d="M70.142,53v1.1a1.106,1.106,0,0,1-1.1,1.1H5.1A1.106,1.106,0,0,1,4,54.1V53Z" transform="translate(-1.795 -24.049)" fill="#d68751"/>
              <rect id="Rectángulo_456324" data-name="Rectángulo 456324" width="2" height="13" transform="translate(53.727 39.006)" fill="#ffdb80"/>
              <path id="Trazado_1264746" data-name="Trazado 1264746" d="M92.278,61l-2.5,3.406a1.107,1.107,0,0,1-.887.452H72V61Z" transform="translate(-32.315 -27.639)" fill="#e1ebf4"/>
              <path id="Trazado_1264747" data-name="Trazado 1264747" d="M106.74,100.679v1.731H88V98h15.913Z" transform="translate(-39.496 -44.245)" fill="#d68751"/>
              <path id="Trazado_1264748" data-name="Trazado 1264748" d="M24.74,98v4.409H6v-1.731L8.828,98Z" transform="translate(-2.693 -44.245)" fill="#d68751"/>
              <g id="Grupo_1206215" data-name="Grupo 1206215" transform="translate(36.367 4.364)" opacity="0.5" style="isolation: isolate">
                <g id="Grupo_1206214" data-name="Grupo 1206214" transform="translate(0 0)">
                  <g id="Grupo_1206213" data-name="Grupo 1206213" clip-path="url(#clip-path-3)">
                    <rect id="Rectángulo_456325" data-name="Rectángulo 456325" width="4" height="1" transform="translate(0.359 -0.357)" fill="#fff"/>
                  </g>
                </g>
              </g>
              <g id="Grupo_1206218" data-name="Grupo 1206218" transform="translate(4.364 4.364)" opacity="0.4" style="isolation: isolate">
                <g id="Grupo_1206217" data-name="Grupo 1206217" transform="translate(0 0)">
                  <g id="Grupo_1206216" data-name="Grupo 1206216" clip-path="url(#clip-path-4)">
                    <rect id="Rectángulo_456327" data-name="Rectángulo 456327" width="29" height="1" transform="translate(0.363 -0.357)" fill="#e8fbfc"/>
                  </g>
                </g>
              </g>
              <g id="Grupo_1206221" data-name="Grupo 1206221" transform="translate(4.364 16.001)" opacity="0.3" style="isolation: isolate">
                <g id="Grupo_1206220" data-name="Grupo 1206220" transform="translate(0 0)">
                  <g id="Grupo_1206219" data-name="Grupo 1206219" clip-path="url(#clip-path-5)">
                    <rect id="Rectángulo_456329" data-name="Rectángulo 456329" width="10" height="1" transform="translate(0.363 0.005)" fill="#0f423c"/>
                  </g>
                </g>
              </g>
              <g id="Grupo_1206224" data-name="Grupo 1206224" transform="translate(14.547 11.638)" opacity="0.3" style="isolation: isolate">
                <g id="Grupo_1206223" data-name="Grupo 1206223" transform="translate(0 0)">
                  <g id="Grupo_1206222" data-name="Grupo 1206222" clip-path="url(#clip-path-6)">
                    <path id="Trazado_1264749" data-name="Trazado 1264749" d="M45.843,22v1.1H27.1A1.106,1.106,0,0,0,26,24.2V23.1A1.106,1.106,0,0,1,27.1,22Z" transform="translate(-26.216 -21.773)" fill="#0f423c"/>
                  </g>
                </g>
              </g>
              <g id="Grupo_1206227" data-name="Grupo 1206227" transform="translate(36.367 11.637)" opacity="0.5" style="isolation: isolate">
                <g id="Grupo_1206226" data-name="Grupo 1206226" transform="translate(0 0)">
                  <g id="Grupo_1206225" data-name="Grupo 1206225" clip-path="url(#clip-path-7)">
                    <rect id="Rectángulo_456332" data-name="Rectángulo 456332" width="4" height="1" transform="translate(0.359 0.369)" fill="#9fa5aa"/>
                  </g>
                </g>
              </g>
              <g id="Grupo_1206230" data-name="Grupo 1206230" transform="translate(42.913 8.001)" opacity="0.45" style="isolation: isolate">
                <g id="Grupo_1206229" data-name="Grupo 1206229" transform="translate(0 0)">
                  <g id="Grupo_1206228" data-name="Grupo 1206228" clip-path="url(#clip-path-8)">
                    <rect id="Rectángulo_456334" data-name="Rectángulo 456334" width="5" height="1" transform="translate(-0.186 0.006)" fill="#ad9359"/>
                  </g>
                </g>
              </g>
              <g id="Grupo_1206233" data-name="Grupo 1206233" transform="translate(49.459 2.182)" opacity="0.4" style="isolation: isolate">
                <g id="Grupo_1206232" data-name="Grupo 1206232" transform="translate(0 0)">
                  <g id="Grupo_1206231" data-name="Grupo 1206231" clip-path="url(#clip-path-9)">
                    <path id="Trazado_1264750" data-name="Trazado 1264750" d="M95.512,5.1V6.2a1.106,1.106,0,0,0-1.1-1.1H91.1A1.106,1.106,0,0,0,90,6.2V5.1A1.106,1.106,0,0,1,91.1,4h3.307a1.106,1.106,0,0,1,1.1,1.1" transform="translate(-89.852 -4.239)" fill="#e8fbfc"/>
                  </g>
                </g>
              </g>
              <g id="Grupo_1206236" data-name="Grupo 1206236" transform="translate(49.459 15.274)" opacity="0.3" style="isolation: isolate">
                <g id="Grupo_1206235" data-name="Grupo 1206235" transform="translate(0 0)">
                  <g id="Grupo_1206234" data-name="Grupo 1206234" clip-path="url(#clip-path-10)">
                    <rect id="Rectángulo_456337" data-name="Rectángulo 456337" width="6" height="1" transform="translate(0.268 -0.268)" fill="#0f423c"/>
                  </g>
                </g>
              </g>
              <g id="Grupo_1206239" data-name="Grupo 1206239" transform="translate(50.235 18.479)" opacity="0.5" style="isolation: isolate">
                <g id="Grupo_1206238" data-name="Grupo 1206238">
                  <g id="Grupo_1206237" data-name="Grupo 1206237" clip-path="url(#clip-path-11)">
                    <path id="Trazado_1264751" data-name="Trazado 1264751" d="M95.4,34l-2.128,3.037L91.14,34h.772l1.356,1.935L94.623,34Z" transform="translate(-91.14 -34)" fill="#9fa5aa"/>
                  </g>
                </g>
              </g>
              <g id="Grupo_1206242" data-name="Grupo 1206242" transform="translate(2.182 29.094)" opacity="0.4" style="isolation: isolate">
                <g id="Grupo_1206241" data-name="Grupo 1206241" transform="translate(0 0)">
                  <g id="Grupo_1206240" data-name="Grupo 1206240" clip-path="url(#clip-path-12)">
                    <path id="Trazado_1264752" data-name="Trazado 1264752" d="M70.142,53v1.1a1.106,1.106,0,0,1-1.1,1.1H5.1A1.106,1.106,0,0,1,4,54.1V53a1.106,1.106,0,0,0,1.1,1.1H69.04a1.106,1.106,0,0,0,1.1-1.1" transform="translate(-3.977 -53.142)" fill="#72492d"/>
                  </g>
                </g>
              </g>
              <g id="Grupo_1206245" data-name="Grupo 1206245" transform="translate(39.685 33.361)" opacity="0.5" style="isolation: isolate">
                <g id="Grupo_1206244" data-name="Grupo 1206244">
                  <g id="Grupo_1206243" data-name="Grupo 1206243" clip-path="url(#clip-path-13)">
                    <path id="Trazado_1264753" data-name="Trazado 1264753" d="M92.278,61l-2.5,3.406a1.107,1.107,0,0,1-.887.452H72v-1.1H88.888a1.107,1.107,0,0,0,.887-.452L91.468,61Z" transform="translate(-72 -61)" fill="#9fa5aa"/>
                  </g>
                </g>
              </g>
              <g id="Grupo_1206248" data-name="Grupo 1206248" transform="translate(8.001 33.458)" opacity="0.4" style="isolation: isolate">
                <g id="Grupo_1206247" data-name="Grupo 1206247" transform="translate(0 0)">
                  <g id="Grupo_1206246" data-name="Grupo 1206246" clip-path="url(#clip-path-14)">
                    <rect id="Rectángulo_456342" data-name="Rectángulo 456342" width="30" height="1" transform="translate(-0.273 -0.451)" fill="#e8fbfc"/>
                  </g>
                </g>
              </g>
              <g id="Grupo_1206251" data-name="Grupo 1206251" transform="translate(7.717 41.91)" opacity="0.3" style="isolation: isolate">
                <g id="Grupo_1206250" data-name="Grupo 1206250">
                  <g id="Grupo_1206249" data-name="Grupo 1206249" clip-path="url(#clip-path-15)">
                    <path id="Trazado_1264754" data-name="Trazado 1264754" d="M43.758,79.536v1.1H17.291L14,77.612v-1.1l3.291,3.026Z" transform="translate(-14 -76.51)" fill="#0f423c"/>
                  </g>
                </g>
              </g>
              <g id="Grupo_1206254" data-name="Grupo 1206254" transform="translate(3.307 53.755)" opacity="0.3" style="isolation: isolate">
                <g id="Grupo_1206253" data-name="Grupo 1206253">
                  <g id="Grupo_1206252" data-name="Grupo 1206252" clip-path="url(#clip-path-16)">
                    <path id="Trazado_1264755" data-name="Trazado 1264755" d="M24.74,98v1.1H8.828L6,101.781v-1.1L8.828,98Z" transform="translate(-6 -98)" fill="#e5d0c3"/>
                  </g>
                </g>
              </g>
              <g id="Grupo_1206257" data-name="Grupo 1206257" transform="translate(48.504 53.755)" opacity="0.3" style="isolation: isolate">
                <g id="Grupo_1206256" data-name="Grupo 1206256">
                  <g id="Grupo_1206255" data-name="Grupo 1206255" clip-path="url(#clip-path-16)">
                    <path id="Trazado_1264756" data-name="Trazado 1264756" d="M106.74,100.679v1.1L103.913,99.1H88V98h15.913Z" transform="translate(-88 -98)" fill="#e5d0c3"/>
                  </g>
                </g>
              </g>
              <g id="Grupo_1206260" data-name="Grupo 1206260" transform="translate(48.732 56.732)" opacity="0.4" style="isolation: isolate">
                <g id="Grupo_1206259" data-name="Grupo 1206259" transform="translate(0 0)">
                  <g id="Grupo_1206258" data-name="Grupo 1206258" clip-path="url(#clip-path-18)">
                    <rect id="Rectángulo_456347" data-name="Rectángulo 456347" width="18" height="1" transform="translate(-0.006 0.274)" fill="#72492d"/>
                  </g>
                </g>
              </g>
              <g id="Grupo_1206263" data-name="Grupo 1206263" transform="translate(3.637 56.732)" opacity="0.4" style="isolation: isolate">
                <g id="Grupo_1206262" data-name="Grupo 1206262" transform="translate(0 0)">
                  <g id="Grupo_1206261" data-name="Grupo 1206261" clip-path="url(#clip-path-19)">
                    <rect id="Rectángulo_456349" data-name="Rectángulo 456349" width="18" height="1" transform="translate(0.09 0.274)" fill="#72492d"/>
                  </g>
                </g>
              </g>
            </g>
          </g>
        </g>
      </g>
    </g>
  </g>
</svg>
